<svg width="74" height="13" viewBox="0 0 74 13" fill="none" xmlns="http://www.w3.org/2000/svg">
<path d="M1.56 10.044C1.12 10.044 0.788 9.968 0.564 9.816C0.34 9.672 0.228 9.428 0.228 9.084C0.228 9.06 0.248 9.048 0.288 9.048C0.344 9.048 0.444 9.068 0.588 9.108C0.732 9.148 1.008 9.168 1.416 9.168C2.104 9.168 2.74 9.092 3.324 8.94C3.908 8.78 4.412 8.564 4.836 8.292C5.268 8.02 5.6 7.716 5.832 7.38C6.072 7.036 6.192 6.684 6.192 6.324C6.192 5.996 6.1 5.732 5.916 5.532C5.732 5.332 5.488 5.18 5.184 5.076C4.888 4.972 4.564 4.904 4.212 4.872C3.86 4.832 3.512 4.812 3.168 4.812C3.016 4.812 2.86 4.816 2.7 4.824C2.548 4.824 2.404 4.824 2.268 4.824C2.084 5.472 1.904 6.124 1.728 6.78C1.552 7.436 1.372 8.072 1.188 8.688C0.988 8.688 0.82 8.632 0.684 8.52C0.548 8.408 0.48 8.272 0.48 8.112C0.48 8.016 0.5 7.904 0.54 7.776C0.58 7.648 0.616 7.532 0.648 7.428C0.696 7.268 0.78 7 0.9 6.624C1.02 6.248 1.164 5.808 1.332 5.304C1.508 4.8 1.7 4.272 1.908 3.72C2.116 3.168 2.328 2.628 2.544 2.1C2.768 1.572 2.984 1.104 3.192 0.696C2.856 0.751999 2.572 0.831999 2.34 0.935999C2.116 1.04 1.94 1.136 1.812 1.224C1.684 1.304 1.592 1.344 1.536 1.344C1.496 1.344 1.444 1.328 1.38 1.296C1.324 1.256 1.272 1.212 1.224 1.164C1.176 1.108 1.152 1.06 1.152 1.02C1.552 0.852 1.968 0.7 2.4 0.564C2.84 0.428 3.372 0.36 3.996 0.36C4.26 0.36 4.552 0.384 4.872 0.431999C5.192 0.471999 5.496 0.559999 5.784 0.696C6.072 0.823999 6.308 1.016 6.492 1.272C6.676 1.52 6.768 1.852 6.768 2.268C6.768 2.66 6.684 2.996 6.516 3.276C6.348 3.548 6.128 3.776 5.856 3.96C5.584 4.136 5.288 4.276 4.968 4.38C4.648 4.484 4.332 4.56 4.02 4.608C4.612 4.64 5.088 4.724 5.448 4.86C5.816 4.996 6.092 5.16 6.276 5.352C6.468 5.536 6.596 5.732 6.66 5.94C6.724 6.148 6.756 6.348 6.756 6.54C6.756 7.004 6.636 7.424 6.396 7.8C6.156 8.176 5.84 8.504 5.448 8.784C5.056 9.064 4.628 9.296 4.164 9.48C3.7 9.672 3.24 9.812 2.784 9.9C2.328 9.996 1.92 10.044 1.56 10.044ZM2.34 4.548C2.78 4.532 3.216 4.484 3.648 4.404C4.088 4.316 4.488 4.18 4.848 3.996C5.208 3.812 5.496 3.572 5.712 3.276C5.936 2.98 6.048 2.612 6.048 2.172C6.048 1.756 5.948 1.436 5.748 1.212C5.556 0.987999 5.304 0.832 4.992 0.744C4.688 0.655999 4.364 0.611999 4.02 0.611999C3.98 0.611999 3.94 0.611999 3.9 0.611999C3.868 0.611999 3.832 0.615999 3.792 0.624C3.504 1.184 3.24 1.8 3 2.472C2.768 3.144 2.548 3.836 2.34 4.548ZM8.59678 9.528C8.10878 9.528 7.74078 9.392 7.49278 9.12C7.25278 8.856 7.13278 8.528 7.13278 8.136C7.13278 7.776 7.22078 7.396 7.39678 6.996C7.58078 6.596 7.82078 6.22 8.11678 5.868C8.42078 5.516 8.75278 5.232 9.11278 5.016C9.47278 4.792 9.82878 4.68 10.1808 4.68C10.3648 4.68 10.5328 4.728 10.6848 4.824C10.8448 4.92 10.9248 5.116 10.9248 5.412C10.9248 5.716 10.8328 6.004 10.6488 6.276C10.4728 6.54 10.2368 6.776 9.94078 6.984C9.65278 7.192 9.33278 7.364 8.98078 7.5C8.63678 7.628 8.29278 7.708 7.94878 7.74C7.93278 7.82 7.92078 7.896 7.91278 7.968C7.90478 8.04 7.90078 8.108 7.90078 8.172C7.90078 8.292 7.91278 8.412 7.93678 8.532C7.96878 8.652 8.02078 8.764 8.09278 8.868C8.16478 8.964 8.26078 9.04 8.38078 9.096C8.50878 9.152 8.66478 9.18 8.84878 9.18C9.19278 9.18 9.53278 9.084 9.86878 8.892C10.2048 8.692 10.5168 8.432 10.8048 8.112C11.0928 7.792 11.3368 7.44 11.5368 7.056L11.6808 7.164C11.4648 7.644 11.1888 8.06 10.8528 8.412C10.5248 8.764 10.1648 9.036 9.77278 9.228C9.38878 9.428 8.99678 9.528 8.59678 9.528ZM8.00878 7.512C8.22478 7.44 8.46878 7.336 8.74078 7.2C9.01278 7.056 9.27278 6.888 9.52078 6.696C9.77678 6.504 9.98478 6.292 10.1448 6.06C10.3128 5.828 10.3968 5.584 10.3968 5.328C10.3968 5.24 10.3808 5.172 10.3488 5.124C10.3168 5.076 10.2488 5.052 10.1448 5.052C9.95278 5.052 9.74878 5.128 9.53278 5.28C9.31678 5.424 9.10878 5.616 8.90878 5.856C8.70878 6.096 8.52878 6.36 8.36878 6.648C8.20878 6.936 8.08878 7.224 8.00878 7.512ZM11.8729 9.564C11.6249 9.564 11.4169 9.48 11.2489 9.312C11.0729 9.152 10.9849 8.904 10.9849 8.568C10.9849 8.28 11.0489 7.972 11.1769 7.644C11.3049 7.308 11.4809 6.98 11.7049 6.66C11.9289 6.332 12.1809 6.036 12.4609 5.772C12.7489 5.5 13.0489 5.284 13.3609 5.124C13.6809 4.964 13.9969 4.884 14.3089 4.884C14.6209 4.884 14.8809 4.968 15.0889 5.136C15.2969 5.296 15.4009 5.512 15.4009 5.784C15.4009 5.984 15.3449 6.12 15.2329 6.192C15.1289 6.264 14.9889 6.3 14.8129 6.3C14.8289 6.236 14.8409 6.168 14.8489 6.096C14.8649 6.016 14.8729 5.944 14.8729 5.88C14.8729 5.696 14.8289 5.54 14.7409 5.412C14.6529 5.276 14.5009 5.208 14.2849 5.208C14.0609 5.208 13.8329 5.288 13.6009 5.448C13.3689 5.6 13.1449 5.808 12.9289 6.072C12.7129 6.328 12.5209 6.608 12.3529 6.912C12.1849 7.216 12.0529 7.516 11.9569 7.812C11.8609 8.108 11.8129 8.372 11.8129 8.604C11.8129 8.916 11.9209 9.072 12.1369 9.072C12.3209 9.072 12.5209 8.988 12.7369 8.82C12.9529 8.644 13.1729 8.424 13.3969 8.16C13.6289 7.888 13.8489 7.608 14.0569 7.32C14.2649 7.032 14.4489 6.768 14.6089 6.528C14.6409 6.48 14.6609 6.456 14.6689 6.456C14.7169 6.464 14.7769 6.48 14.8489 6.504C14.9289 6.528 14.9969 6.56 15.0529 6.6C15.1089 6.64 15.1369 6.692 15.1369 6.756C15.1369 6.828 15.1009 6.928 15.0289 7.056C14.9569 7.176 14.8769 7.316 14.7889 7.476C14.7009 7.636 14.6209 7.8 14.5489 7.968C14.4769 8.128 14.4409 8.28 14.4409 8.424C14.4409 8.544 14.4729 8.664 14.5369 8.784C14.6009 8.896 14.7049 8.952 14.8489 8.952C15.0649 8.952 15.3489 8.796 15.7009 8.484C16.0529 8.164 16.4089 7.688 16.7689 7.056L16.8889 7.176C16.7209 7.608 16.5049 7.988 16.2409 8.316C15.9769 8.644 15.6929 8.9 15.3889 9.084C15.0929 9.268 14.8009 9.36 14.5129 9.36C14.2169 9.36 13.9969 9.272 13.8529 9.096C13.7169 8.92 13.6489 8.728 13.6489 8.52C13.6489 8.472 13.6529 8.42 13.6609 8.364C13.6689 8.3 13.6769 8.236 13.6849 8.172C13.3409 8.636 13.0249 8.984 12.7369 9.216C12.4569 9.448 12.1689 9.564 11.8729 9.564ZM17.5434 9.552C17.1994 9.552 16.9354 9.452 16.7514 9.252C16.5674 9.052 16.4754 8.756 16.4754 8.364C16.4754 8.012 16.5394 7.58 16.6674 7.068C16.8034 6.548 16.9714 6.016 17.1714 5.472C17.0914 5.456 17.0154 5.444 16.9434 5.436C16.8714 5.42 16.8034 5.4 16.7394 5.376V5.16C16.8034 5.168 16.8794 5.176 16.9674 5.184C17.0554 5.192 17.1554 5.2 17.2674 5.208C17.4354 4.776 17.6154 4.36 17.8074 3.96C17.9994 3.552 18.1874 3.192 18.3714 2.88C18.5634 2.56 18.7434 2.308 18.9114 2.124C19.0874 1.932 19.2354 1.836 19.3554 1.836C19.4194 1.836 19.4754 1.86 19.5234 1.908C19.5794 1.948 19.6074 2.012 19.6074 2.1C19.6074 2.236 19.5234 2.46 19.3554 2.772C19.1874 3.076 18.9794 3.44 18.7314 3.864C18.4834 4.288 18.2434 4.748 18.0114 5.244C18.0834 5.244 18.1554 5.244 18.2274 5.244C18.3074 5.244 18.3834 5.244 18.4554 5.244C18.7194 5.244 18.9954 5.24 19.2834 5.232C19.5794 5.224 19.8754 5.204 20.1714 5.172V5.388C19.7314 5.436 19.3354 5.472 18.9834 5.496C18.6394 5.52 18.3314 5.532 18.0594 5.532C18.0274 5.532 17.9954 5.532 17.9634 5.532C17.9394 5.532 17.9114 5.532 17.8794 5.532C17.6954 5.956 17.5394 6.392 17.4114 6.84C17.2834 7.288 17.2194 7.724 17.2194 8.148C17.2194 8.492 17.2714 8.74 17.3754 8.892C17.4794 9.036 17.6514 9.108 17.8914 9.108C18.3074 9.108 18.7154 8.924 19.1154 8.556C19.5154 8.188 19.8674 7.688 20.1714 7.056L20.3274 7.176C20.1354 7.624 19.8914 8.028 19.5954 8.388C19.3074 8.748 18.9874 9.032 18.6354 9.24C18.2834 9.448 17.9194 9.552 17.5434 9.552ZM22.0213 9.312C21.7493 9.312 21.5333 9.24 21.3733 9.096C21.2213 8.952 21.1453 8.764 21.1453 8.532C21.1453 8.292 21.2013 8.04 21.3133 7.776C21.4253 7.512 21.5333 7.252 21.6373 6.996C21.7493 6.732 21.8053 6.496 21.8053 6.288C21.8053 6.032 21.7293 5.844 21.5773 5.724C21.4333 5.596 21.2853 5.48 21.1333 5.376C20.9493 5.848 20.7573 6.296 20.5573 6.72C20.3573 7.144 20.1933 7.464 20.0653 7.68L19.9573 7.476C20.0693 7.268 20.2133 6.964 20.3893 6.564C20.5733 6.164 20.7533 5.708 20.9293 5.196C20.8493 5.116 20.8093 5.02 20.8093 4.908C20.8093 4.668 20.8773 4.472 21.0133 4.32C21.1493 4.168 21.2493 4.092 21.3133 4.092C21.4013 4.092 21.4493 4.132 21.4573 4.212C21.4733 4.284 21.4813 4.34 21.4813 4.38C21.4813 4.42 21.4573 4.5 21.4093 4.62C21.3693 4.732 21.3493 4.8 21.3493 4.824C21.3493 4.936 21.4093 5.04 21.5293 5.136C21.6573 5.224 21.8013 5.328 21.9613 5.448C22.1213 5.56 22.2613 5.7 22.3813 5.868C22.5093 6.028 22.5733 6.236 22.5733 6.492C22.5733 6.732 22.5213 6.976 22.4173 7.224C22.3213 7.472 22.2213 7.708 22.1173 7.932C22.0213 8.156 21.9733 8.352 21.9733 8.52C21.9733 8.664 22.0093 8.76 22.0813 8.808C22.1533 8.856 22.2373 8.88 22.3333 8.88C22.5253 8.88 22.7213 8.82 22.9213 8.7C23.1293 8.58 23.3293 8.428 23.5213 8.244C23.7133 8.06 23.8853 7.868 24.0373 7.668C24.1893 7.46 24.3013 7.268 24.3733 7.092L24.5293 7.212C24.3773 7.548 24.1693 7.88 23.9053 8.208C23.6413 8.528 23.3453 8.792 23.0173 9C22.6973 9.208 22.3653 9.312 22.0213 9.312ZM24.9812 9.312C24.6692 9.312 24.4372 9.212 24.2852 9.012C24.1332 8.82 24.0572 8.584 24.0572 8.304C24.0572 8.12 24.0892 7.888 24.1532 7.608C24.2252 7.328 24.3172 7.036 24.4292 6.732C24.5412 6.42 24.6692 6.128 24.8132 5.856C24.9652 5.584 25.1252 5.364 25.2932 5.196C25.4612 5.02 25.6252 4.932 25.7852 4.932C25.8572 4.932 25.9172 4.956 25.9652 5.004C26.0212 5.044 26.0492 5.108 26.0492 5.196C26.0492 5.292 25.9852 5.448 25.8572 5.664C25.7372 5.88 25.5932 6.128 25.4252 6.408C25.2572 6.688 25.1092 6.984 24.9812 7.296C24.8612 7.6 24.8012 7.892 24.8012 8.172C24.8012 8.46 24.8492 8.652 24.9452 8.748C25.0412 8.844 25.1892 8.892 25.3892 8.892C25.6612 8.892 25.9492 8.756 26.2532 8.484C26.5652 8.212 26.8932 7.736 27.2372 7.056L27.3452 7.176C27.1132 7.864 26.7772 8.392 26.3372 8.76C25.9052 9.128 25.4532 9.312 24.9812 9.312ZM26.4212 3.816C26.2932 3.816 26.1772 3.784 26.0732 3.72C25.9772 3.656 25.9292 3.556 25.9292 3.42C25.9292 3.252 26.0252 3.108 26.2172 2.988C26.4172 2.86 26.6132 2.796 26.8052 2.796C26.9252 2.796 27.0212 2.824 27.0932 2.88C27.1652 2.936 27.2012 3.032 27.2012 3.168C27.2012 3.32 27.1172 3.468 26.9492 3.612C26.7892 3.748 26.6132 3.816 26.4212 3.816ZM26.9517 12.36C26.7037 12.36 26.5117 12.312 26.3757 12.216C26.2317 12.128 26.1597 11.972 26.1597 11.748C26.1597 11.492 26.2477 11.252 26.4237 11.028C26.5917 10.812 26.8197 10.604 27.1077 10.404C27.3957 10.204 27.7117 10 28.0557 9.792C28.4077 9.592 28.7557 9.376 29.0997 9.144C29.0997 8.856 29.0397 8.592 28.9197 8.352C28.7997 8.112 28.5837 7.868 28.2717 7.62C28.5517 7.54 28.7877 7.4 28.9797 7.2C29.1797 7 29.3277 6.78 29.4237 6.54C29.5277 6.292 29.5797 6.064 29.5797 5.856C29.5797 5.672 29.5397 5.52 29.4597 5.4C29.3877 5.28 29.2717 5.22 29.1117 5.22C28.8477 5.22 28.6117 5.32 28.4037 5.52C28.1957 5.72 28.0037 5.984 27.8277 6.312C27.6517 6.64 27.4717 7 27.2877 7.392L27.1437 7.272C27.3197 6.792 27.4997 6.364 27.6837 5.988C27.8757 5.612 28.0997 5.316 28.3557 5.1C28.6117 4.876 28.9197 4.764 29.2797 4.764C29.5517 4.764 29.7837 4.852 29.9757 5.028C30.1757 5.204 30.2757 5.444 30.2757 5.748C30.2757 6.036 30.2077 6.304 30.0717 6.552C29.9357 6.8 29.7597 7.02 29.5437 7.212C29.3277 7.396 29.0997 7.548 28.8597 7.668C29.0677 7.828 29.2397 8 29.3757 8.184C29.5197 8.36 29.6277 8.548 29.6997 8.748C30.0037 8.516 30.2717 8.264 30.5037 7.992C30.7437 7.712 30.9197 7.4 31.0317 7.056L31.1637 7.2C31.0517 7.56 30.8717 7.888 30.6237 8.184C30.3757 8.472 30.0917 8.736 29.7717 8.976C29.7877 9.032 29.7997 9.096 29.8077 9.168C29.8157 9.24 29.8197 9.308 29.8197 9.372C29.8197 9.732 29.7397 10.088 29.5797 10.44C29.4197 10.8 29.2037 11.124 28.9317 11.412C28.6597 11.7 28.3517 11.928 28.0077 12.096C27.6717 12.272 27.3197 12.36 26.9517 12.36ZM26.8677 12.012C27.0117 12.012 27.1997 11.952 27.4317 11.832C27.6637 11.72 27.8997 11.552 28.1397 11.328C28.3797 11.112 28.5877 10.844 28.7637 10.524C28.9397 10.204 29.0477 9.836 29.0877 9.42C28.7677 9.62 28.4517 9.808 28.1397 9.984C27.8357 10.168 27.5597 10.344 27.3117 10.512C27.0637 10.688 26.8677 10.864 26.7237 11.04C26.5717 11.224 26.4957 11.416 26.4957 11.616C26.4957 11.752 26.5317 11.852 26.6037 11.916C26.6757 11.98 26.7637 12.012 26.8677 12.012ZM36.3735 10.044C35.9415 10.044 35.5335 9.964 35.1495 9.804C34.7655 9.652 34.4535 9.416 34.2135 9.096C33.9815 8.776 33.8655 8.376 33.8655 7.896C33.8655 7.48 33.9455 7.156 34.1055 6.924C34.2735 6.692 34.4775 6.528 34.7175 6.432C34.9575 6.336 35.1855 6.288 35.4015 6.288C35.1855 6.52 35.0215 6.776 34.9095 7.056C34.7975 7.336 34.7415 7.616 34.7415 7.896C34.7415 8.192 34.8055 8.468 34.9335 8.724C35.0695 8.98 35.2735 9.184 35.5455 9.336C35.8175 9.496 36.1615 9.576 36.5775 9.576C36.9375 9.576 37.2895 9.508 37.6335 9.372C37.9775 9.244 38.2575 9.052 38.4735 8.796C38.6975 8.532 38.8095 8.208 38.8095 7.824C38.8095 7.48 38.7215 7.184 38.5455 6.936C38.3695 6.688 38.1415 6.468 37.8615 6.276C37.5895 6.084 37.2975 5.9 36.9855 5.724C36.6735 5.548 36.3775 5.364 36.0975 5.172C35.8255 4.972 35.6015 4.744 35.4255 4.488C35.2495 4.232 35.1615 3.924 35.1615 3.564C35.1615 3.228 35.2415 2.876 35.4015 2.508C35.5615 2.14 35.7895 1.792 36.0855 1.464C36.3895 1.136 36.7495 0.872 37.1655 0.672C37.5895 0.464 38.0615 0.36 38.5815 0.36C39.0535 0.36 39.3815 0.476 39.5655 0.707999C39.7495 0.931999 39.8415 1.216 39.8415 1.56C39.8415 1.848 39.7895 2.16 39.6855 2.496C39.5895 2.824 39.4695 3.14 39.3255 3.444C39.1815 3.74 39.0455 3.992 38.9175 4.2C38.7735 4.168 38.6695 4.108 38.6055 4.02C38.5495 3.924 38.5215 3.812 38.5215 3.684C38.5215 3.516 38.5575 3.324 38.6295 3.108C38.7015 2.892 38.7815 2.668 38.8695 2.436C38.9655 2.204 39.0495 1.98 39.1215 1.764C39.1935 1.54 39.2295 1.34 39.2295 1.164C39.2295 1.004 39.1815 0.88 39.0855 0.792C38.9895 0.696 38.8135 0.648 38.5575 0.648C38.1815 0.648 37.8335 0.736 37.5135 0.912C37.1935 1.088 36.9135 1.316 36.6735 1.596C36.4335 1.868 36.2455 2.156 36.1095 2.46C35.9815 2.764 35.9175 3.04 35.9175 3.288C35.9175 3.584 36.0015 3.84 36.1695 4.056C36.3455 4.264 36.5695 4.456 36.8415 4.632C37.1135 4.8 37.4015 4.972 37.7055 5.148C38.0175 5.316 38.3095 5.504 38.5815 5.712C38.8535 5.92 39.0735 6.168 39.2415 6.456C39.4175 6.736 39.5055 7.08 39.5055 7.488C39.5055 7.904 39.4135 8.272 39.2295 8.592C39.0455 8.904 38.7975 9.168 38.4855 9.384C38.1815 9.6 37.8455 9.764 37.4775 9.876C37.1095 9.988 36.7415 10.044 36.3735 10.044ZM40.9471 9.564C40.6991 9.564 40.4911 9.48 40.3231 9.312C40.1471 9.152 40.0591 8.904 40.0591 8.568C40.0591 8.28 40.1231 7.972 40.2511 7.644C40.3791 7.308 40.5551 6.98 40.7791 6.66C41.0031 6.332 41.2551 6.036 41.5351 5.772C41.8231 5.5 42.1231 5.284 42.4351 5.124C42.7551 4.964 43.0711 4.884 43.3831 4.884C43.6951 4.884 43.9551 4.968 44.1631 5.136C44.3711 5.296 44.4751 5.512 44.4751 5.784C44.4751 5.984 44.4191 6.12 44.3071 6.192C44.2031 6.264 44.0631 6.3 43.8871 6.3C43.9031 6.236 43.9151 6.168 43.9231 6.096C43.9391 6.016 43.9471 5.944 43.9471 5.88C43.9471 5.696 43.9031 5.54 43.8151 5.412C43.7271 5.276 43.5751 5.208 43.3591 5.208C43.1351 5.208 42.9071 5.288 42.6751 5.448C42.4431 5.6 42.2191 5.808 42.0031 6.072C41.7871 6.328 41.5951 6.608 41.4271 6.912C41.2591 7.216 41.1271 7.516 41.0311 7.812C40.9351 8.108 40.8871 8.372 40.8871 8.604C40.8871 8.916 40.9951 9.072 41.2111 9.072C41.3951 9.072 41.5951 8.988 41.8111 8.82C42.0271 8.644 42.2471 8.424 42.4711 8.16C42.7031 7.888 42.9231 7.608 43.1311 7.32C43.3391 7.032 43.5231 6.768 43.6831 6.528C43.7151 6.48 43.7351 6.456 43.7431 6.456C43.7911 6.464 43.8511 6.48 43.9231 6.504C44.0031 6.528 44.0711 6.56 44.1271 6.6C44.1831 6.64 44.2111 6.692 44.2111 6.756C44.2111 6.828 44.1751 6.928 44.1031 7.056C44.0311 7.176 43.9511 7.316 43.8631 7.476C43.7751 7.636 43.6951 7.8 43.6231 7.968C43.5511 8.128 43.5151 8.28 43.5151 8.424C43.5151 8.544 43.5471 8.664 43.6111 8.784C43.6751 8.896 43.7791 8.952 43.9231 8.952C44.1391 8.952 44.4231 8.796 44.7751 8.484C45.1271 8.164 45.4831 7.688 45.8431 7.056L45.9631 7.176C45.7951 7.608 45.5791 7.988 45.3151 8.316C45.0511 8.644 44.7671 8.9 44.4631 9.084C44.1671 9.268 43.8751 9.36 43.5871 9.36C43.2911 9.36 43.0711 9.272 42.9271 9.096C42.7911 8.92 42.7231 8.728 42.7231 8.52C42.7231 8.472 42.7271 8.42 42.7351 8.364C42.7431 8.3 42.7511 8.236 42.7591 8.172C42.4151 8.636 42.0991 8.984 41.8111 9.216C41.5311 9.448 41.2431 9.564 40.9471 9.564ZM46.5937 9.36C46.2497 9.36 46.0017 9.24 45.8497 9C45.7057 8.768 45.6337 8.476 45.6337 8.124C45.6337 7.74 45.7057 7.284 45.8497 6.756C45.9937 6.228 46.1817 5.672 46.4137 5.088C46.6537 4.504 46.9137 3.936 47.1937 3.384C47.4737 2.824 47.7537 2.316 48.0337 1.86C48.3137 1.404 48.5697 1.04 48.8017 0.767999C49.0417 0.496 49.2297 0.36 49.3657 0.36C49.4537 0.36 49.5257 0.412 49.5817 0.516C49.6377 0.612 49.6817 0.731999 49.7137 0.875999C49.7457 1.012 49.7617 1.136 49.7617 1.248C49.7617 1.464 49.7057 1.748 49.5937 2.1C49.4897 2.444 49.3377 2.832 49.1377 3.264C48.9457 3.688 48.7137 4.12 48.4417 4.56C48.1777 4.992 47.8857 5.408 47.5657 5.808C47.2537 6.208 46.9217 6.552 46.5697 6.84C46.5217 7.056 46.4817 7.268 46.4497 7.476C46.4257 7.676 46.4137 7.868 46.4137 8.052C46.4137 8.364 46.4577 8.596 46.5457 8.748C46.6337 8.9 46.7657 8.976 46.9417 8.976C47.1577 8.976 47.3697 8.88 47.5777 8.688C47.7937 8.496 47.9937 8.256 48.1777 7.968C48.3697 7.672 48.5337 7.368 48.6697 7.056L48.8497 7.152C48.5297 7.832 48.1817 8.372 47.8057 8.772C47.4297 9.164 47.0257 9.36 46.5937 9.36ZM46.6777 6.432C46.9577 6.152 47.2297 5.832 47.4937 5.472C47.7577 5.104 48.0017 4.724 48.2257 4.332C48.4577 3.94 48.6617 3.56 48.8377 3.192C49.0137 2.824 49.1497 2.496 49.2457 2.208C49.3417 1.912 49.3897 1.684 49.3897 1.524C49.3897 1.444 49.3777 1.392 49.3537 1.368C49.3377 1.344 49.3217 1.332 49.3057 1.332C49.2417 1.332 49.1297 1.436 48.9697 1.644C48.8177 1.844 48.6377 2.116 48.4297 2.46C48.2217 2.804 48.0097 3.196 47.7937 3.636C47.5777 4.076 47.3697 4.536 47.1697 5.016C46.9777 5.496 46.8137 5.968 46.6777 6.432ZM54.4816 9.372C54.2016 9.372 53.9976 9.284 53.8696 9.108C53.7416 8.94 53.6776 8.736 53.6776 8.496C53.6776 8.296 53.7056 8.096 53.7616 7.896C53.8256 7.696 53.8856 7.5 53.9416 7.308C54.0056 7.116 54.0376 6.944 54.0376 6.792C54.0376 6.632 54.0016 6.52 53.9296 6.456C53.8576 6.392 53.7776 6.36 53.6896 6.36C53.4896 6.36 53.2696 6.516 53.0296 6.828C52.7976 7.14 52.4936 7.58 52.1176 8.148C51.9896 8.34 51.8816 8.536 51.7936 8.736C51.7056 8.928 51.6216 9.104 51.5416 9.264C51.4776 9.264 51.3976 9.256 51.3016 9.24C51.2056 9.224 51.1176 9.196 51.0376 9.156C50.9656 9.124 50.9296 9.08 50.9296 9.024C50.9296 8.968 50.9656 8.836 51.0376 8.628C51.1176 8.412 51.2056 8.164 51.3016 7.884C51.4056 7.596 51.4936 7.308 51.5656 7.02C51.6456 6.724 51.6856 6.472 51.6856 6.264C51.6856 6.128 51.6616 6.02 51.6136 5.94C51.5736 5.852 51.4976 5.808 51.3856 5.808C51.2096 5.808 50.9976 5.916 50.7496 6.132C50.5016 6.34 50.2456 6.616 49.9816 6.96C49.7176 7.304 49.4656 7.684 49.2256 8.1C48.9936 8.508 48.8056 8.916 48.6616 9.324C48.5896 9.324 48.5016 9.312 48.3976 9.288C48.2936 9.264 48.2056 9.232 48.1336 9.192C48.0536 9.152 48.0136 9.112 48.0136 9.072C48.0136 9.024 48.0576 8.884 48.1456 8.652C48.2256 8.412 48.3216 8.128 48.4336 7.8C48.5376 7.464 48.6296 7.124 48.7096 6.78C48.7976 6.436 48.8416 6.132 48.8416 5.868C48.8896 5.812 48.9656 5.756 49.0696 5.7C49.1736 5.644 49.2816 5.616 49.3936 5.616C49.5056 5.616 49.5856 5.644 49.6336 5.7C49.6896 5.756 49.7176 5.832 49.7176 5.928C49.7176 6.032 49.6856 6.212 49.6216 6.468C49.5656 6.716 49.4936 6.992 49.4056 7.296C49.5656 7.04 49.7456 6.78 49.9456 6.516C50.1536 6.244 50.3696 5.996 50.5936 5.772C50.8176 5.548 51.0416 5.368 51.2656 5.232C51.4976 5.088 51.7216 5.016 51.9376 5.016C52.1856 5.016 52.3536 5.108 52.4416 5.292C52.5376 5.468 52.5856 5.68 52.5856 5.928C52.5856 6.128 52.5616 6.34 52.5136 6.564C52.4736 6.78 52.4256 6.984 52.3696 7.176C52.3136 7.36 52.2616 7.508 52.2136 7.62C52.3816 7.316 52.5656 7.024 52.7656 6.744C52.9736 6.456 53.1976 6.224 53.4376 6.048C53.6776 5.864 53.9336 5.772 54.2056 5.772C54.4616 5.772 54.6376 5.848 54.7336 6C54.8376 6.152 54.8896 6.332 54.8896 6.54C54.8896 6.748 54.8536 6.976 54.7816 7.224C54.7096 7.472 54.6336 7.712 54.5536 7.944C54.4816 8.176 54.4456 8.376 54.4456 8.544C54.4456 8.648 54.4696 8.744 54.5176 8.832C54.5736 8.912 54.6696 8.952 54.8056 8.952C55.0296 8.952 55.2376 8.852 55.4296 8.652C55.6296 8.444 55.8136 8.196 55.9816 7.908C56.1496 7.612 56.2936 7.328 56.4136 7.056L56.5576 7.224C56.4296 7.56 56.2656 7.896 56.0656 8.232C55.8656 8.56 55.6296 8.832 55.3576 9.048C55.0936 9.264 54.8016 9.372 54.4816 9.372ZM56.7674 9.564C56.5194 9.564 56.3114 9.48 56.1434 9.312C55.9674 9.152 55.8794 8.904 55.8794 8.568C55.8794 8.28 55.9434 7.972 56.0714 7.644C56.1994 7.308 56.3754 6.98 56.5994 6.66C56.8234 6.332 57.0754 6.036 57.3554 5.772C57.6434 5.5 57.9434 5.284 58.2554 5.124C58.5754 4.964 58.8914 4.884 59.2034 4.884C59.5154 4.884 59.7754 4.968 59.9834 5.136C60.1914 5.296 60.2954 5.512 60.2954 5.784C60.2954 5.984 60.2394 6.12 60.1274 6.192C60.0234 6.264 59.8834 6.3 59.7074 6.3C59.7234 6.236 59.7354 6.168 59.7434 6.096C59.7594 6.016 59.7674 5.944 59.7674 5.88C59.7674 5.696 59.7234 5.54 59.6354 5.412C59.5474 5.276 59.3954 5.208 59.1794 5.208C58.9554 5.208 58.7274 5.288 58.4954 5.448C58.2634 5.6 58.0394 5.808 57.8234 6.072C57.6074 6.328 57.4154 6.608 57.2474 6.912C57.0794 7.216 56.9474 7.516 56.8514 7.812C56.7554 8.108 56.7074 8.372 56.7074 8.604C56.7074 8.916 56.8154 9.072 57.0314 9.072C57.2154 9.072 57.4154 8.988 57.6314 8.82C57.8474 8.644 58.0674 8.424 58.2914 8.16C58.5234 7.888 58.7434 7.608 58.9514 7.32C59.1594 7.032 59.3434 6.768 59.5034 6.528C59.5354 6.48 59.5554 6.456 59.5634 6.456C59.6114 6.464 59.6714 6.48 59.7434 6.504C59.8234 6.528 59.8914 6.56 59.9474 6.6C60.0034 6.64 60.0314 6.692 60.0314 6.756C60.0314 6.828 59.9954 6.928 59.9234 7.056C59.8514 7.176 59.7714 7.316 59.6834 7.476C59.5954 7.636 59.5154 7.8 59.4434 7.968C59.3714 8.128 59.3354 8.28 59.3354 8.424C59.3354 8.544 59.3674 8.664 59.4314 8.784C59.4954 8.896 59.5994 8.952 59.7434 8.952C59.9594 8.952 60.2434 8.796 60.5954 8.484C60.9474 8.164 61.3034 7.688 61.6634 7.056L61.7834 7.176C61.6154 7.608 61.3994 7.988 61.1354 8.316C60.8714 8.644 60.5874 8.9 60.2834 9.084C59.9874 9.268 59.6954 9.36 59.4074 9.36C59.1114 9.36 58.8914 9.272 58.7474 9.096C58.6114 8.92 58.5434 8.728 58.5434 8.52C58.5434 8.472 58.5474 8.42 58.5554 8.364C58.5634 8.3 58.5714 8.236 58.5794 8.172C58.2354 8.636 57.9194 8.984 57.6314 9.216C57.3514 9.448 57.0634 9.564 56.7674 9.564ZM61.358 12.36C61.11 12.36 60.918 12.312 60.782 12.216C60.638 12.128 60.566 11.972 60.566 11.748C60.566 11.492 60.654 11.252 60.83 11.028C60.998 10.812 61.226 10.604 61.514 10.404C61.802 10.204 62.118 10 62.462 9.792C62.814 9.592 63.162 9.376 63.506 9.144C63.506 8.856 63.446 8.592 63.326 8.352C63.206 8.112 62.99 7.868 62.678 7.62C62.958 7.54 63.194 7.4 63.386 7.2C63.586 7 63.734 6.78 63.83 6.54C63.934 6.292 63.986 6.064 63.986 5.856C63.986 5.672 63.946 5.52 63.866 5.4C63.794 5.28 63.678 5.22 63.518 5.22C63.254 5.22 63.018 5.32 62.81 5.52C62.602 5.72 62.41 5.984 62.234 6.312C62.058 6.64 61.878 7 61.694 7.392L61.55 7.272C61.726 6.792 61.906 6.364 62.09 5.988C62.282 5.612 62.506 5.316 62.762 5.1C63.018 4.876 63.326 4.764 63.686 4.764C63.958 4.764 64.19 4.852 64.382 5.028C64.582 5.204 64.682 5.444 64.682 5.748C64.682 6.036 64.614 6.304 64.478 6.552C64.342 6.8 64.166 7.02 63.95 7.212C63.734 7.396 63.506 7.548 63.266 7.668C63.474 7.828 63.646 8 63.782 8.184C63.926 8.36 64.034 8.548 64.106 8.748C64.41 8.516 64.678 8.264 64.91 7.992C65.15 7.712 65.326 7.4 65.438 7.056L65.57 7.2C65.458 7.56 65.278 7.888 65.03 8.184C64.782 8.472 64.498 8.736 64.178 8.976C64.194 9.032 64.206 9.096 64.214 9.168C64.222 9.24 64.226 9.308 64.226 9.372C64.226 9.732 64.146 10.088 63.986 10.44C63.826 10.8 63.61 11.124 63.338 11.412C63.066 11.7 62.758 11.928 62.414 12.096C62.078 12.272 61.726 12.36 61.358 12.36ZM61.274 12.012C61.418 12.012 61.606 11.952 61.838 11.832C62.07 11.72 62.306 11.552 62.546 11.328C62.786 11.112 62.994 10.844 63.17 10.524C63.346 10.204 63.454 9.836 63.494 9.42C63.174 9.62 62.858 9.808 62.546 9.984C62.242 10.168 61.966 10.344 61.718 10.512C61.47 10.688 61.274 10.864 61.13 11.04C60.978 11.224 60.902 11.416 60.902 11.616C60.902 11.752 60.938 11.852 61.01 11.916C61.082 11.98 61.17 12.012 61.274 12.012ZM65.1666 12.36C64.9186 12.36 64.7266 12.312 64.5906 12.216C64.4466 12.128 64.3746 11.972 64.3746 11.748C64.3746 11.492 64.4626 11.252 64.6386 11.028C64.8066 10.812 65.0346 10.604 65.3226 10.404C65.6106 10.204 65.9266 10 66.2706 9.792C66.6226 9.592 66.9706 9.376 67.3146 9.144C67.3146 8.856 67.2546 8.592 67.1346 8.352C67.0146 8.112 66.7986 7.868 66.4866 7.62C66.7666 7.54 67.0026 7.4 67.1946 7.2C67.3946 7 67.5426 6.78 67.6386 6.54C67.7426 6.292 67.7946 6.064 67.7946 5.856C67.7946 5.672 67.7546 5.52 67.6746 5.4C67.6026 5.28 67.4866 5.22 67.3266 5.22C67.0626 5.22 66.8266 5.32 66.6186 5.52C66.4106 5.72 66.2186 5.984 66.0426 6.312C65.8666 6.64 65.6866 7 65.5026 7.392L65.3586 7.272C65.5346 6.792 65.7146 6.364 65.8986 5.988C66.0906 5.612 66.3146 5.316 66.5706 5.1C66.8266 4.876 67.1346 4.764 67.4946 4.764C67.7666 4.764 67.9986 4.852 68.1906 5.028C68.3906 5.204 68.4906 5.444 68.4906 5.748C68.4906 6.036 68.4226 6.304 68.2866 6.552C68.1506 6.8 67.9746 7.02 67.7586 7.212C67.5426 7.396 67.3146 7.548 67.0746 7.668C67.2826 7.828 67.4546 8 67.5906 8.184C67.7346 8.36 67.8426 8.548 67.9146 8.748C68.2186 8.516 68.4866 8.264 68.7186 7.992C68.9586 7.712 69.1346 7.4 69.2466 7.056L69.3786 7.2C69.2666 7.56 69.0866 7.888 68.8386 8.184C68.5906 8.472 68.3066 8.736 67.9866 8.976C68.0026 9.032 68.0146 9.096 68.0226 9.168C68.0306 9.24 68.0346 9.308 68.0346 9.372C68.0346 9.732 67.9546 10.088 67.7946 10.44C67.6346 10.8 67.4186 11.124 67.1466 11.412C66.8746 11.7 66.5666 11.928 66.2226 12.096C65.8866 12.272 65.5346 12.36 65.1666 12.36ZM65.0826 12.012C65.2266 12.012 65.4146 11.952 65.6466 11.832C65.8786 11.72 66.1146 11.552 66.3546 11.328C66.5946 11.112 66.8026 10.844 66.9786 10.524C67.1546 10.204 67.2626 9.836 67.3026 9.42C66.9826 9.62 66.6666 9.808 66.3546 9.984C66.0506 10.168 65.7746 10.344 65.5266 10.512C65.2786 10.688 65.0826 10.864 64.9386 11.04C64.7866 11.224 64.7106 11.416 64.7106 11.616C64.7106 11.752 64.7466 11.852 64.8186 11.916C64.8906 11.98 64.9786 12.012 65.0826 12.012ZM69.8632 9.384C69.5192 9.384 69.2752 9.276 69.1312 9.06C68.9872 8.852 68.9152 8.596 68.9152 8.292C68.9152 8.044 68.9552 7.788 69.0352 7.524C69.1152 7.26 69.2192 7.012 69.3472 6.78C69.4832 6.548 69.6312 6.36 69.7912 6.216C69.9592 6.072 70.1272 6 70.2952 6C70.3352 6 70.3752 6.008 70.4152 6.024C70.4632 6.032 70.5072 6.044 70.5472 6.06C70.4752 6.124 70.3872 6.244 70.2832 6.42C70.1872 6.588 70.0952 6.784 70.0072 7.008C69.9192 7.224 69.8432 7.44 69.7792 7.656C69.7232 7.872 69.6952 8.056 69.6952 8.208C69.6952 8.448 69.7352 8.624 69.8152 8.736C69.8952 8.84 69.9992 8.892 70.1272 8.892C70.2952 8.892 70.4952 8.804 70.7272 8.628C70.9592 8.444 71.1872 8.212 71.4112 7.932C71.1872 7.748 71.0112 7.508 70.8832 7.212C70.7632 6.908 70.7032 6.6 70.7032 6.288C70.7032 6.024 70.7472 5.776 70.8352 5.544C70.9312 5.312 71.0672 5.128 71.2432 4.992C71.4192 4.848 71.6312 4.776 71.8792 4.776C72.2072 4.776 72.4272 4.864 72.5392 5.04C72.6512 5.216 72.7072 5.436 72.7072 5.7C72.7072 6.012 72.6312 6.36 72.4792 6.744C72.3272 7.12 72.1352 7.484 71.9032 7.836C72.0472 7.916 72.1992 7.956 72.3592 7.956C72.4872 7.956 72.6312 7.932 72.7912 7.884C72.9512 7.828 73.1072 7.736 73.2592 7.608C73.4192 7.48 73.5472 7.308 73.6432 7.092L73.7872 7.212C73.6272 7.588 73.3992 7.856 73.1032 8.016C72.8152 8.168 72.5392 8.244 72.2752 8.244C72.1712 8.244 72.0712 8.236 71.9752 8.22C71.8792 8.196 71.7872 8.164 71.6992 8.124C71.4272 8.484 71.1272 8.784 70.7992 9.024C70.4792 9.264 70.1672 9.384 69.8632 9.384ZM71.6272 7.62C71.8272 7.324 71.9912 7.016 72.1192 6.696C72.2552 6.368 72.3232 6.06 72.3232 5.772C72.3232 5.54 72.2872 5.372 72.2152 5.268C72.1512 5.156 72.0672 5.1 71.9632 5.1C71.8032 5.1 71.6392 5.216 71.4712 5.448C71.3032 5.68 71.2192 5.972 71.2192 6.324C71.2192 6.556 71.2512 6.792 71.3152 7.032C71.3872 7.264 71.4912 7.46 71.6272 7.62Z" fill="black"/>
</svg>
